<svg xmlns="http://www.w3.org/2000/svg" xmlns:xlink="http://www.w3.org/1999/xlink" version="1.1" width="256" height="256" viewBox="0 0 256 256" xml:space="preserve">
<g style="stroke: none; stroke-width: 0; stroke-dasharray: none; stroke-linecap: butt; stroke-linejoin: miter; stroke-miterlimit: 10; fill: none; fill-rule: nonzero; opacity: 1;" transform="translate(1.4065934065934016 1.4065934065934016) scale(2.81 2.81)">
	<path d="M 27.965 40.691 c -1.618 0 -3.234 -0.379 -4.756 -1.134 c -0.99 -0.491 -1.394 -1.69 -0.903 -2.68 c 0.491 -0.99 1.689 -1.395 2.68 -0.903 c 1.74 0.863 3.671 0.946 5.439 0.23 c 1.971 -0.796 3.495 -2.466 4.291 -4.7 c 0.371 -1.04 1.513 -1.583 2.555 -1.212 c 1.041 0.371 1.583 1.515 1.212 2.555 c -1.185 3.326 -3.515 5.835 -6.56 7.066 C 30.639 40.433 29.302 40.691 27.965 40.691 z" style="stroke: none; stroke-width: 1; stroke-dasharray: none; stroke-linecap: butt; stroke-linejoin: miter; stroke-miterlimit: 10; fill: rgb(0,0,0); fill-rule: nonzero; opacity: 1;" transform=" matrix(1 0 0 1 0 0) " stroke-linecap="round"/>
	<path d="M 21.166 28.948 c -0.652 0 -1.292 -0.318 -1.675 -0.905 c -2.546 -3.89 -2.97 -8.148 -1.261 -12.657 c 0.391 -1.033 1.546 -1.554 2.579 -1.162 c 1.033 0.391 1.553 1.546 1.162 2.579 c -1.265 3.337 -0.989 6.213 0.868 9.05 c 0.605 0.924 0.346 2.164 -0.578 2.769 C 21.921 28.842 21.541 28.948 21.166 28.948 z" style="stroke: none; stroke-width: 1; stroke-dasharray: none; stroke-linecap: butt; stroke-linejoin: miter; stroke-miterlimit: 10; fill: rgb(0,0,0); fill-rule: nonzero; opacity: 1;" transform=" matrix(1 0 0 1 0 0) " stroke-linecap="round"/>
	<path d="M 27.086 28.887 c -0.922 0 -1.751 -0.641 -1.953 -1.579 c -0.233 -1.08 0.454 -2.144 1.533 -2.377 c 3.422 -0.738 7.141 -2.593 5.504 -10.45 c -0.225 -1.081 0.469 -2.141 1.55 -2.366 c 1.08 -0.225 2.141 0.469 2.366 1.55 c 2.195 10.54 -3.452 14.07 -8.577 15.176 C 27.368 28.872 27.226 28.887 27.086 28.887 z" style="stroke: none; stroke-width: 1; stroke-dasharray: none; stroke-linecap: butt; stroke-linejoin: miter; stroke-miterlimit: 10; fill: rgb(0,0,0); fill-rule: nonzero; opacity: 1;" transform=" matrix(1 0 0 1 0 0) " stroke-linecap="round"/>
	<path d="M 34.069 50.104 c -0.276 0 -0.553 -0.008 -0.831 -0.023 c -1.103 -0.064 -1.945 -1.011 -1.881 -2.113 c 0.063 -1.103 1.021 -1.946 2.112 -1.881 c 2.692 0.155 5.261 -0.734 7.071 -2.442 C 42.15 42.126 43 40.121 43 37.846 c 0 -1.104 0.896 -2 2 -2 c 1.105 0 2 0.896 2 2 c 0 3.355 -1.318 6.448 -3.714 8.708 C 40.87 48.834 37.549 50.104 34.069 50.104 z" style="stroke: none; stroke-width: 1; stroke-dasharray: none; stroke-linecap: butt; stroke-linejoin: miter; stroke-miterlimit: 10; fill: rgb(0,0,0); fill-rule: nonzero; opacity: 1;" transform=" matrix(1 0 0 1 0 0) " stroke-linecap="round"/>
	<path d="M 24.921 65.499 c -0.193 0 -0.389 -0.028 -0.583 -0.088 c -1.057 -0.322 -1.652 -1.439 -1.33 -2.496 c 1.694 -5.56 0.053 -8.832 -5.319 -10.611 c -1.048 -0.347 -1.617 -1.479 -1.27 -2.527 c 0.347 -1.049 1.477 -1.618 2.527 -1.27 c 7.507 2.485 10.234 7.871 7.888 15.574 C 26.571 64.943 25.778 65.499 24.921 65.499 z" style="stroke: none; stroke-width: 1; stroke-dasharray: none; stroke-linecap: butt; stroke-linejoin: miter; stroke-miterlimit: 10; fill: rgb(0,0,0); fill-rule: nonzero; opacity: 1;" transform=" matrix(1 0 0 1 0 0) " stroke-linecap="round"/>
	<path d="M 23.703 55.668 c -0.714 0 -1.405 -0.383 -1.766 -1.057 c -1.783 -3.335 -1.876 -6.726 -0.277 -10.078 c 0.476 -0.996 1.668 -1.419 2.667 -0.944 c 0.997 0.476 1.419 1.669 0.944 2.667 c -1.036 2.171 -0.972 4.287 0.194 6.469 c 0.521 0.975 0.153 2.187 -0.821 2.707 C 24.344 55.592 24.021 55.668 23.703 55.668 z" style="stroke: none; stroke-width: 1; stroke-dasharray: none; stroke-linecap: butt; stroke-linejoin: miter; stroke-miterlimit: 10; fill: rgb(0,0,0); fill-rule: nonzero; opacity: 1;" transform=" matrix(1 0 0 1 0 0) " stroke-linecap="round"/>
	<path d="M 39.537 75.33 c -0.328 0 -0.66 -0.08 -0.966 -0.25 c -6.966 -3.854 -8.794 -9.66 -5.287 -16.787 c 0.487 -0.991 1.686 -1.4 2.677 -0.912 c 0.991 0.488 1.399 1.687 0.912 2.678 c -2.543 5.17 -1.422 8.723 3.635 11.521 c 0.967 0.535 1.316 1.752 0.782 2.719 C 40.923 74.958 40.241 75.33 39.537 75.33 z" style="stroke: none; stroke-width: 1; stroke-dasharray: none; stroke-linecap: butt; stroke-linejoin: miter; stroke-miterlimit: 10; fill: rgb(0,0,0); fill-rule: nonzero; opacity: 1;" transform=" matrix(1 0 0 1 0 0) " stroke-linecap="round"/>
	<path d="M 33.683 79.286 c -0.396 0 -0.796 -0.117 -1.145 -0.361 c -0.905 -0.634 -1.125 -1.881 -0.492 -2.785 c 1.352 -1.932 1.615 -4.026 0.805 -6.402 c -0.356 -1.046 0.202 -2.182 1.248 -2.538 c 1.044 -0.358 2.182 0.201 2.539 1.247 c 1.233 3.618 0.792 6.979 -1.314 9.986 C 34.935 78.989 34.314 79.286 33.683 79.286 z" style="stroke: none; stroke-width: 1; stroke-dasharray: none; stroke-linecap: butt; stroke-linejoin: miter; stroke-miterlimit: 10; fill: rgb(0,0,0); fill-rule: nonzero; opacity: 1;" transform=" matrix(1 0 0 1 0 0) " stroke-linecap="round"/>
	<path d="M 16.509 65.353 c -1.642 0 -3.583 -0.563 -5.65 -2.313 c -0.843 -0.714 -0.948 -1.976 -0.234 -2.818 c 0.714 -0.844 1.977 -0.947 2.818 -0.234 c 2.028 1.715 3.439 1.463 4.324 1.122 c 1.031 -0.397 2.188 0.117 2.585 1.147 c 0.396 1.031 -0.118 2.188 -1.148 2.585 C 18.452 65.131 17.54 65.353 16.509 65.353 z" style="stroke: none; stroke-width: 1; stroke-dasharray: none; stroke-linecap: butt; stroke-linejoin: miter; stroke-miterlimit: 10; fill: rgb(0,0,0); fill-rule: nonzero; opacity: 1;" transform=" matrix(1 0 0 1 0 0) " stroke-linecap="round"/>
	<path d="M 13 40.717 c -0.613 0 -1.219 -0.281 -1.611 -0.813 c -0.655 -0.889 -0.466 -2.141 0.423 -2.797 c 1.313 -0.968 2.663 -1.659 4.013 -2.053 c 1.06 -0.31 2.171 0.3 2.48 1.359 c 0.31 1.061 -0.299 2.171 -1.359 2.48 c -0.898 0.262 -1.826 0.744 -2.76 1.433 C 13.828 40.59 13.413 40.717 13 40.717 z" style="stroke: none; stroke-width: 1; stroke-dasharray: none; stroke-linecap: butt; stroke-linejoin: miter; stroke-miterlimit: 10; fill: rgb(0,0,0); fill-rule: nonzero; opacity: 1;" transform=" matrix(1 0 0 1 0 0) " stroke-linecap="round"/>
	<path d="M 37.472 55.794 c -0.852 0 -1.641 -0.548 -1.908 -1.403 c -1.147 -3.668 0.239 -7.74 3.225 -9.473 c 0.955 -0.554 2.179 -0.229 2.734 0.726 c 0.554 0.955 0.229 2.18 -0.726 2.733 c -1.341 0.778 -1.989 2.985 -1.416 4.818 c 0.33 1.055 -0.257 2.177 -1.312 2.507 C 37.871 55.764 37.669 55.794 37.472 55.794 z" style="stroke: none; stroke-width: 1; stroke-dasharray: none; stroke-linecap: butt; stroke-linejoin: miter; stroke-miterlimit: 10; fill: rgb(0,0,0); fill-rule: nonzero; opacity: 1;" transform=" matrix(1 0 0 1 0 0) " stroke-linecap="round"/>
	<path d="M 34.245 22.77 c -0.346 0 -0.697 -0.09 -1.017 -0.279 c -0.951 -0.563 -1.265 -1.789 -0.703 -2.74 c 0.598 -1.011 2.419 -4.088 5.983 -4.351 c 1.101 -0.068 2.061 0.746 2.142 1.848 s -0.746 2.06 -1.848 2.142 c -0.689 0.051 -1.634 0.37 -2.834 2.399 C 35.594 22.418 34.928 22.77 34.245 22.77 z" style="stroke: none; stroke-width: 1; stroke-dasharray: none; stroke-linecap: butt; stroke-linejoin: miter; stroke-miterlimit: 10; fill: rgb(0,0,0); fill-rule: nonzero; opacity: 1;" transform=" matrix(1 0 0 1 0 0) " stroke-linecap="round"/>
	<path d="M 45 80.512 c -1.104 0 -2 -0.896 -2 -2 L 43 9.513 c 0 -1.104 0.896 -2 2 -2 c 1.105 0 2 0.896 2 2 l 0.002 68.999 C 47.001 79.616 46.105 80.512 45 80.512 z" style="stroke: none; stroke-width: 1; stroke-dasharray: none; stroke-linecap: butt; stroke-linejoin: miter; stroke-miterlimit: 10; fill: rgb(0,0,0); fill-rule: nonzero; opacity: 1;" transform=" matrix(1 0 0 1 0 0) " stroke-linecap="round"/>
	<path d="M 24.572 83.518 c -8.446 0 -15.317 -7.493 -15.317 -16.703 c 0 -1.628 0.215 -3.229 0.64 -4.778 C 7.184 58.94 5.65 54.804 5.65 50.498 c 0 -4.677 1.738 -9.022 4.818 -12.169 c -1.27 -2.478 -1.935 -5.255 -1.935 -8.128 c 0 -6.984 4.077 -13.283 10.026 -15.675 c 2.482 -5.974 7.861 -9.783 13.942 -9.783 c 1.915 0 3.802 0.394 5.611 1.171 c 1.015 0.436 1.484 1.612 1.048 2.627 c -0.436 1.015 -1.614 1.484 -2.627 1.048 c -1.307 -0.562 -2.664 -0.846 -4.032 -0.846 c -4.664 0 -8.792 3.147 -10.518 8.019 l -0.33 0.931 l -0.94 0.304 c -4.816 1.559 -8.181 6.578 -8.181 12.204 c 0 2.686 0.742 5.255 2.145 7.432 l 0.963 1.494 l -1.371 1.132 c -2.894 2.39 -4.622 6.218 -4.622 10.239 c 0 3.672 1.421 7.165 3.898 9.584 l 0.911 0.89 l -0.421 1.202 c -0.52 1.484 -0.784 3.046 -0.784 4.641 c 0 7.005 5.077 12.703 11.317 12.703 c 0.875 0 1.755 -0.116 2.616 -0.346 c 1.066 -0.282 2.163 0.35 2.447 1.418 c 0.284 1.067 -0.351 2.163 -1.418 2.447 C 27.021 83.355 25.794 83.518 24.572 83.518 z" style="stroke: none; stroke-width: 1; stroke-dasharray: none; stroke-linecap: butt; stroke-linejoin: miter; stroke-miterlimit: 10; fill: rgb(0,0,0); fill-rule: nonzero; opacity: 1;" transform=" matrix(1 0 0 1 0 0) " stroke-linecap="round"/>
	<path d="M 45 11.513 c -1.104 0 -2 -0.896 -2 -2 C 43 6.473 40.845 4 38.196 4 c -1.959 0 -3.706 1.347 -4.449 3.432 c -0.371 1.04 -1.515 1.583 -2.556 1.211 c -1.04 -0.372 -1.583 -1.516 -1.211 -2.556 C 31.299 2.39 34.524 0 38.196 0 c 4.855 0 8.805 4.268 8.805 9.513 C 47.001 10.617 46.105 11.513 45 11.513 z" style="stroke: none; stroke-width: 1; stroke-dasharray: none; stroke-linecap: butt; stroke-linejoin: miter; stroke-miterlimit: 10; fill: rgb(0,0,0); fill-rule: nonzero; opacity: 1;" transform=" matrix(1 0 0 1 0 0) " stroke-linecap="round"/>
	<path d="M 36.407 90 c -5.841 0 -10.593 -5.153 -10.593 -11.488 c 0 -1.104 0.896 -2 2 -2 s 2 0.896 2 2 c 0 4.129 2.958 7.488 6.593 7.488 S 43 82.641 43 78.512 c 0 -1.104 0.896 -2 2 -2 c 1.105 0 2 0.896 2 2 C 47 84.847 42.248 90 36.407 90 z" style="stroke: none; stroke-width: 1; stroke-dasharray: none; stroke-linecap: butt; stroke-linejoin: miter; stroke-miterlimit: 10; fill: rgb(0,0,0); fill-rule: nonzero; opacity: 1;" transform=" matrix(1 0 0 1 0 0) " stroke-linecap="round"/>
	<path d="M 59.08 37.736 c -1.337 0 -2.674 -0.258 -3.959 -0.778 c -3.045 -1.23 -5.375 -3.74 -6.561 -7.066 c -0.371 -1.041 0.172 -2.185 1.212 -2.555 c 1.044 -0.373 2.185 0.171 2.556 1.212 c 0.797 2.234 2.32 3.904 4.291 4.7 c 1.771 0.716 3.701 0.633 5.439 -0.231 c 0.99 -0.49 2.189 -0.086 2.681 0.903 c 0.49 0.99 0.086 2.189 -0.903 2.681 C 62.314 37.357 60.697 37.736 59.08 37.736 z" style="stroke: none; stroke-width: 1; stroke-dasharray: none; stroke-linecap: butt; stroke-linejoin: miter; stroke-miterlimit: 10; fill: rgb(0,0,0); fill-rule: nonzero; opacity: 1;" transform=" matrix(1 0 0 1 0 0) " stroke-linecap="round"/>
	<path d="M 70.527 25.104 c -0.151 0 -0.304 -0.017 -0.457 -0.053 c -1.075 -0.251 -1.744 -1.327 -1.492 -2.403 c 0.428 -1.832 0.249 -3.744 -0.547 -5.846 c -0.392 -1.033 0.129 -2.188 1.162 -2.579 c 1.034 -0.389 2.188 0.129 2.578 1.163 c 1.071 2.83 1.308 5.579 0.701 8.172 C 72.258 24.481 71.436 25.104 70.527 25.104 z" style="stroke: none; stroke-width: 1; stroke-dasharray: none; stroke-linecap: butt; stroke-linejoin: miter; stroke-miterlimit: 10; fill: rgb(0,0,0); fill-rule: nonzero; opacity: 1;" transform=" matrix(1 0 0 1 0 0) " stroke-linecap="round"/>
	<path d="M 61.357 30.478 c -0.363 0 -0.731 -0.1 -1.063 -0.307 c -4.438 -2.791 -8.54 -8.039 -2.873 -17.194 c 0.581 -0.939 1.813 -1.23 2.753 -0.648 c 0.939 0.582 1.229 1.814 0.647 2.753 c -4.224 6.824 -1.362 9.838 1.602 11.702 c 0.936 0.588 1.217 1.823 0.629 2.758 C 62.673 30.146 62.022 30.478 61.357 30.478 z" style="stroke: none; stroke-width: 1; stroke-dasharray: none; stroke-linecap: butt; stroke-linejoin: miter; stroke-miterlimit: 10; fill: rgb(0,0,0); fill-rule: nonzero; opacity: 1;" transform=" matrix(1 0 0 1 0 0) " stroke-linecap="round"/>
	<path d="M 45 78.447 c -1.104 0 -2 -0.896 -2 -2 c 0 -3.355 1.319 -6.448 3.714 -8.708 c 2.608 -2.461 6.27 -3.74 10.048 -3.527 c 1.103 0.064 1.944 1.011 1.881 2.113 c -0.064 1.103 -0.995 1.943 -2.113 1.881 c -2.673 -0.151 -5.259 0.734 -7.07 2.442 C 47.85 72.167 47 74.172 47 76.447 C 47 77.552 46.104 78.447 45 78.447 z" style="stroke: none; stroke-width: 1; stroke-dasharray: none; stroke-linecap: butt; stroke-linejoin: miter; stroke-miterlimit: 10; fill: rgb(0,0,0); fill-rule: nonzero; opacity: 1;" transform=" matrix(1 0 0 1 0 0) " stroke-linecap="round"/>
	<path d="M 61.021 71.179 c -0.698 0 -1.377 -0.366 -1.744 -1.018 c -0.542 -0.963 -0.202 -2.183 0.76 -2.725 c 4.932 -2.779 5.912 -6.307 3.182 -11.438 c -0.519 -0.975 -0.149 -2.187 0.826 -2.705 c 0.975 -0.52 2.187 -0.147 2.705 0.826 c 3.783 7.108 2.141 12.918 -4.748 16.801 C 61.691 71.096 61.354 71.179 61.021 71.179 z" style="stroke: none; stroke-width: 1; stroke-dasharray: none; stroke-linecap: butt; stroke-linejoin: miter; stroke-miterlimit: 10; fill: rgb(0,0,0); fill-rule: nonzero; opacity: 1;" transform=" matrix(1 0 0 1 0 0) " stroke-linecap="round"/>
	<path d="M 67.037 75.106 c -0.612 0 -1.216 -0.279 -1.608 -0.809 c -2.213 -2.981 -2.773 -6.327 -1.665 -9.942 c 0.324 -1.057 1.445 -1.646 2.498 -1.326 c 1.056 0.323 1.65 1.442 1.326 2.498 c -0.725 2.366 -0.38 4.455 1.054 6.388 c 0.658 0.887 0.473 2.14 -0.415 2.798 C 67.869 74.979 67.451 75.106 67.037 75.106 z" style="stroke: none; stroke-width: 1; stroke-dasharray: none; stroke-linecap: butt; stroke-linejoin: miter; stroke-miterlimit: 10; fill: rgb(0,0,0); fill-rule: nonzero; opacity: 1;" transform=" matrix(1 0 0 1 0 0) " stroke-linecap="round"/>
	<path d="M 51.277 51.893 c -0.478 0 -0.958 -0.171 -1.34 -0.517 c -0.819 -0.74 -0.884 -2.005 -0.143 -2.824 c 5.326 -5.893 11.396 -6.34 17.553 -1.289 c 0.854 0.7 0.979 1.96 0.277 2.814 c -0.698 0.854 -1.96 0.979 -2.814 0.277 c -4.467 -3.663 -8.184 -3.395 -12.049 0.879 C 52.367 51.671 51.823 51.893 51.277 51.893 z" style="stroke: none; stroke-width: 1; stroke-dasharray: none; stroke-linecap: butt; stroke-linejoin: miter; stroke-miterlimit: 10; fill: rgb(0,0,0); fill-rule: nonzero; opacity: 1;" transform=" matrix(1 0 0 1 0 0) " stroke-linecap="round"/>
	<path d="M 60.367 47.92 c -1.059 0 -1.942 -0.831 -1.995 -1.9 c -0.056 -1.103 0.794 -2.042 1.897 -2.097 c 2.508 -0.125 4.356 -1.144 5.652 -3.114 c 0.606 -0.922 1.85 -1.178 2.77 -0.572 c 0.923 0.607 1.18 1.847 0.572 2.77 c -2.018 3.067 -4.977 4.72 -8.795 4.91 C 60.435 47.919 60.401 47.92 60.367 47.92 z" style="stroke: none; stroke-width: 1; stroke-dasharray: none; stroke-linecap: butt; stroke-linejoin: miter; stroke-miterlimit: 10; fill: rgb(0,0,0); fill-rule: nonzero; opacity: 1;" transform=" matrix(1 0 0 1 0 0) " stroke-linecap="round"/>
	<path d="M 73.491 65.353 c -1.031 0 -1.943 -0.222 -2.695 -0.512 c -1.03 -0.396 -1.545 -1.554 -1.147 -2.585 c 0.396 -1.03 1.556 -1.542 2.585 -1.147 c 0.882 0.341 2.295 0.595 4.323 -1.122 c 0.844 -0.714 2.105 -0.608 2.818 0.234 c 0.714 0.843 0.608 2.104 -0.234 2.818 C 77.073 64.789 75.132 65.353 73.491 65.353 z" style="stroke: none; stroke-width: 1; stroke-dasharray: none; stroke-linecap: butt; stroke-linejoin: miter; stroke-miterlimit: 10; fill: rgb(0,0,0); fill-rule: nonzero; opacity: 1;" transform=" matrix(1 0 0 1 0 0) " stroke-linecap="round"/>
	<path d="M 76.999 40.717 c -0.412 0 -0.828 -0.127 -1.186 -0.391 c -0.933 -0.688 -1.86 -1.17 -2.759 -1.432 c -1.061 -0.31 -1.669 -1.42 -1.359 -2.48 c 0.31 -1.06 1.419 -1.669 2.48 -1.359 c 1.352 0.395 2.701 1.085 4.013 2.053 c 0.889 0.656 1.077 1.908 0.422 2.797 C 78.218 40.436 77.612 40.717 76.999 40.717 z" style="stroke: none; stroke-width: 1; stroke-dasharray: none; stroke-linecap: butt; stroke-linejoin: miter; stroke-miterlimit: 10; fill: rgb(0,0,0); fill-rule: nonzero; opacity: 1;" transform=" matrix(1 0 0 1 0 0) " stroke-linecap="round"/>
	<path d="M 50.209 69.646 c -0.689 0 -1.36 -0.356 -1.731 -0.996 c -0.555 -0.955 -0.23 -2.179 0.726 -2.733 c 1.342 -0.779 1.99 -2.985 1.417 -4.818 c -0.33 -1.055 0.257 -2.177 1.311 -2.506 c 1.056 -0.328 2.177 0.256 2.506 1.311 c 1.148 3.666 -0.238 7.738 -3.226 9.473 C 50.896 69.56 50.55 69.646 50.209 69.646 z" style="stroke: none; stroke-width: 1; stroke-dasharray: none; stroke-linecap: butt; stroke-linejoin: miter; stroke-miterlimit: 10; fill: rgb(0,0,0); fill-rule: nonzero; opacity: 1;" transform=" matrix(1 0 0 1 0 0) " stroke-linecap="round"/>
	<path d="M 56.721 22.282 c -0.943 0 -1.783 -0.67 -1.964 -1.631 c -0.436 -2.318 -1.215 -2.94 -1.845 -3.224 c -1.008 -0.453 -1.457 -1.637 -1.004 -2.645 c 0.454 -1.008 1.638 -1.457 2.645 -1.003 c 3.259 1.465 3.919 4.979 4.136 6.133 c 0.204 1.085 -0.511 2.131 -1.597 2.335 C 56.967 22.271 56.843 22.282 56.721 22.282 z" style="stroke: none; stroke-width: 1; stroke-dasharray: none; stroke-linecap: butt; stroke-linejoin: miter; stroke-miterlimit: 10; fill: rgb(0,0,0); fill-rule: nonzero; opacity: 1;" transform=" matrix(1 0 0 1 0 0) " stroke-linecap="round"/>
	<path d="M 45 80.512 L 45 80.512 c -1.104 0 -2 -0.896 -2 -2 L 43 9.513 c 0 -1.104 0.896 -2 2 -2 l 0 0 c 1.105 0 2 0.896 2 2 l -0.002 68.999 C 46.999 79.616 46.104 80.512 45 80.512 z" style="stroke: none; stroke-width: 1; stroke-dasharray: none; stroke-linecap: butt; stroke-linejoin: miter; stroke-miterlimit: 10; fill: rgb(0,0,0); fill-rule: nonzero; opacity: 1;" transform=" matrix(1 0 0 1 0 0) " stroke-linecap="round"/>
	<path d="M 65.428 83.518 c -1.222 0 -2.448 -0.162 -3.646 -0.48 c -1.067 -0.284 -1.702 -1.38 -1.418 -2.447 c 0.284 -1.066 1.375 -1.703 2.447 -1.418 c 0.861 0.229 1.742 0.346 2.616 0.346 c 6.24 0 11.317 -5.698 11.317 -12.703 c 0 -1.596 -0.264 -3.157 -0.784 -4.64 l -0.421 -1.202 l 0.911 -0.891 c 2.478 -2.42 3.898 -5.913 3.898 -9.584 c 0 -4.021 -1.728 -7.849 -4.622 -10.239 l -1.371 -1.132 l 0.964 -1.494 c 1.403 -2.175 2.146 -4.745 2.146 -7.431 c 0 -5.626 -3.364 -10.645 -8.181 -12.204 l -0.939 -0.304 l -0.329 -0.931 c -1.727 -4.871 -5.855 -8.019 -10.519 -8.019 c -1.368 0 -2.725 0.285 -4.032 0.846 c -1.013 0.435 -2.192 -0.034 -2.627 -1.048 c -0.436 -1.015 0.033 -2.191 1.049 -2.627 c 1.809 -0.777 3.696 -1.171 5.61 -1.171 c 6.08 0 11.459 3.809 13.942 9.783 c 5.949 2.392 10.025 8.691 10.025 15.675 c 0 2.873 -0.665 5.651 -1.935 8.128 c 3.08 3.147 4.818 7.492 4.818 12.169 c 0 4.306 -1.533 8.441 -4.244 11.537 c 0.425 1.549 0.64 3.15 0.64 4.779 C 80.745 76.024 73.874 83.518 65.428 83.518 z" style="stroke: none; stroke-width: 1; stroke-dasharray: none; stroke-linecap: butt; stroke-linejoin: miter; stroke-miterlimit: 10; fill: rgb(0,0,0); fill-rule: nonzero; opacity: 1;" transform=" matrix(1 0 0 1 0 0) " stroke-linecap="round"/>
	<path d="M 45 11.513 c -1.104 0 -2 -0.896 -2 -2 C 43 4.268 46.949 0 51.804 0 c 3.672 0 6.897 2.389 8.218 6.087 c 0.371 1.04 -0.171 2.185 -1.211 2.556 c -1.04 0.372 -2.185 -0.169 -2.557 -1.211 C 55.51 5.347 53.763 4 51.804 4 c -2.649 0 -4.805 2.473 -4.805 5.513 C 46.999 10.617 46.104 11.513 45 11.513 z" style="stroke: none; stroke-width: 1; stroke-dasharray: none; stroke-linecap: butt; stroke-linejoin: miter; stroke-miterlimit: 10; fill: rgb(0,0,0); fill-rule: nonzero; opacity: 1;" transform=" matrix(1 0 0 1 0 0) " stroke-linecap="round"/>
	<path d="M 53.593 90 C 47.752 90 43 84.847 43 78.512 c 0 -1.104 0.896 -2 2 -2 c 1.105 0 2 0.896 2 2 C 47 82.641 49.957 86 53.593 86 s 6.594 -3.359 6.594 -7.488 c 0 -1.104 0.896 -2 2 -2 s 2 0.896 2 2 C 64.187 84.847 59.435 90 53.593 90 z" style="stroke: none; stroke-width: 1; stroke-dasharray: none; stroke-linecap: butt; stroke-linejoin: miter; stroke-miterlimit: 10; fill: rgb(0,0,0); fill-rule: nonzero; opacity: 1;" transform=" matrix(1 0 0 1 0 0) " stroke-linecap="round"/>
</g>
</svg>